<?xml version="1.0" encoding="UTF-8" standalone="no"?>
<!-- Created with Inkscape (http://www.inkscape.org/) -->

<svg
   xmlns:dc="http://purl.org/dc/elements/1.1/"
   xmlns:cc="http://creativecommons.org/ns#"
   xmlns:rdf="http://www.w3.org/1999/02/22-rdf-syntax-ns#"
   xmlns:svg="http://www.w3.org/2000/svg"
   xmlns="http://www.w3.org/2000/svg"
   xmlns:sodipodi="http://sodipodi.sourceforge.net/DTD/sodipodi-0.dtd"
   xmlns:inkscape="http://www.inkscape.org/namespaces/inkscape"
   width="99.765602mm"
   height="23.190382mm"
   viewBox="0 0 99.765602 23.190382"
   version="1.1"
   id="svg2956"
   inkscape:version="0.92.5 (2060ec1f9f, 2020-04-08)"
   sodipodi:docname="um-dos-lineas.svg">
  <defs
     id="defs2950" />
  <sodipodi:namedview
     id="base"
     pagecolor="#ffffff"
     bordercolor="#666666"
     borderopacity="1.0"
     inkscape:pageopacity="0.0"
     inkscape:pageshadow="2"
     inkscape:zoom="1.4"
     inkscape:cx="37.854239"
     inkscape:cy="-42.620441"
     inkscape:document-units="mm"
     inkscape:current-layer="layer1"
     showgrid="false"
     fit-margin-top="0"
     fit-margin-left="0"
     fit-margin-right="0"
     fit-margin-bottom="0"
     inkscape:window-width="1920"
     inkscape:window-height="1056"
     inkscape:window-x="0"
     inkscape:window-y="0"
     inkscape:window-maximized="1" />
  <metadata
     id="metadata2953">
    <rdf:RDF>
      <cc:Work
         rdf:about="">
        <dc:format>image/svg+xml</dc:format>
        <dc:type
           rdf:resource="http://purl.org/dc/dcmitype/StillImage" />
        <dc:title></dc:title>
      </cc:Work>
    </rdf:RDF>
  </metadata>
  <g
     inkscape:label="Capa 1"
     inkscape:groupmode="layer"
     id="layer1"
     transform="translate(12.085184,-111.53576)">
    <g
       id="g20"
       transform="matrix(0.35277777,0,0,-0.35277777,24.642951,122.68266)">
      <path
         d="m 0,0 c 0,-3.558 -2.14,-6.299 -6.683,-6.299 -4.28,0 -6.539,2.525 -6.539,6.347 v 11.058 h 2.163 V -0.023 c 0,-2.79 1.491,-4.401 4.496,-4.401 3.101,0 4.423,1.827 4.423,4.424 V 11.106 H 0 Z"
         style="fill:#af9060;fill-opacity:1;fill-rule:nonzero;stroke:none"
         id="path22"
         inkscape:connector-curvature="0" />
    </g>
    <g
       id="g24"
       transform="matrix(0.35277777,0,0,-0.35277777,30.046764,124.82)">
      <path
         d="M 0,0 -9.184,14.257 H -9.28 c 0.072,-1.131 0.193,-2.91 0.193,-4.665 V 0 h -1.996 v 17.165 h 2.5 L 0.577,2.957 H 0.673 C 0.625,3.727 0.504,5.914 0.504,7.477 v 9.688 h 2.02 V 0 Z"
         style="fill:#af9060;fill-opacity:1;fill-rule:nonzero;stroke:none"
         id="path26"
         inkscape:connector-curvature="0" />
    </g>
    <g
       id="g28"
       transform="matrix(0.35277777,0,0,-0.35277777,32.007187,124.82)">
      <path
         d="M 0,0 0.721,1.924 H 2.019 V 15.266 H 0 v 1.899 H 6.202 L 5.48,15.266 H 4.183 V 1.924 H 6.202 V 0 Z"
         style="fill:#af9060;fill-opacity:1;fill-rule:nonzero;stroke:none"
         id="path30"
         inkscape:connector-curvature="0" />
    </g>
    <g
       id="g32"
       transform="matrix(0.35277777,0,0,-0.35277777,37.746034,124.82)">
      <path
         d="m 0,0 h -2.164 l -6.13,17.165 h 2.26 L -2.164,6.154 C -1.659,4.736 -1.322,3.534 -1.082,2.404 -0.866,3.534 -0.504,4.76 0,6.202 L 3.846,17.165 H 6.13 Z"
         style="fill:#af9060;fill-opacity:1;fill-rule:nonzero;stroke:none"
         id="path34"
         inkscape:connector-curvature="0" />
    </g>
    <g
       id="g36"
       transform="matrix(0.35277777,0,0,-0.35277777,40.771703,124.82)">
      <path
         d="M 0,0 V 17.165 H 9.592 V 15.266 H 2.164 V 9.904 H 8.606 V 8.03 H 2.164 V 1.899 h 7.957 L 9.4,0 Z"
         style="fill:#af9060;fill-opacity:1;fill-rule:nonzero;stroke:none"
         id="path38"
         inkscape:connector-curvature="0" />
    </g>
    <g
       id="g40"
       transform="matrix(0.35277777,0,0,-0.35277777,46.120556,119.42603)">
      <path
         d="m 0,0 v -6.371 h 2.572 c 2.789,0 4.015,1.106 4.015,3.27 C 6.587,-0.866 5.265,0 2.452,0 Z m 8.823,-3.006 c 0,-2.74 -1.707,-3.99 -3.437,-4.591 l 4.711,-7.693 H 7.572 L 3.413,-8.197 H 0 V -15.29 H -2.163 V 1.875 h 4.735 c 4.255,0 6.251,-1.61 6.251,-4.881"
         style="fill:#af9060;fill-opacity:1;fill-rule:nonzero;stroke:none"
         id="path42"
         inkscape:connector-curvature="0" />
    </g>
    <g
       id="g44"
       transform="matrix(0.35277777,0,0,-0.35277777,52.055407,124.90474)">
      <path
         d="m 0,0 c -1.923,0 -3.63,0.288 -4.712,0.817 l 0.673,1.779 c 0.745,-0.336 2.308,-0.721 4.135,-0.721 2.548,0 3.87,1.058 3.87,2.765 0,1.682 -0.938,2.404 -4.038,3.534 -2.933,1.057 -4.424,2.428 -4.424,5.097 0,2.715 2.236,4.375 5.481,4.375 1.876,0 3.438,-0.385 4.736,-0.962 L 5.023,14.833 c -1.201,0.505 -2.595,0.913 -4.086,0.913 -2.139,0 -3.245,-1.009 -3.245,-2.5 0,-1.731 0.961,-2.429 3.75,-3.462 C 4.472,8.655 6.13,7.524 6.13,4.832 6.13,1.779 3.75,0 0,0"
         style="fill:#af9060;fill-opacity:1;fill-rule:nonzero;stroke:none"
         id="path46"
         inkscape:connector-curvature="0" />
    </g>
    <g
       id="g48"
       transform="matrix(0.35277777,0,0,-0.35277777,54.961341,124.82)">
      <path
         d="M 0,0 0.721,1.924 H 2.02 V 15.266 H 0 v 1.899 H 6.202 L 5.481,15.266 H 4.183 V 1.924 H 6.202 V 0 Z"
         style="fill:#af9060;fill-opacity:1;fill-rule:nonzero;stroke:none"
         id="path50"
         inkscape:connector-curvature="0" />
    </g>
    <g
       id="g52"
       transform="matrix(0.35277777,0,0,-0.35277777,59.970187,119.41774)">
      <path
         d="m 0,0 h -2.813 v -13.462 h 2.333 c 4.639,0 6.971,2.308 6.971,6.827 C 6.491,-2.066 4.135,0 0,0 M -0.191,-15.313 H -4.976 V 1.852 h 5.288 c 5.169,0 8.463,-2.909 8.463,-8.414 0,-5.794 -3.318,-8.751 -8.966,-8.751"
         style="fill:#af9060;fill-opacity:1;fill-rule:nonzero;stroke:none"
         id="path54"
         inkscape:connector-curvature="0" />
    </g>
    <g
       id="g56"
       transform="matrix(0.35277777,0,0,-0.35277777,66.341531,120.43543)">
      <path
         d="M 0,0 C -0.144,0.385 -0.649,1.972 -0.816,2.572 -1.058,1.587 -1.37,0.553 -1.562,0 L -3.51,-5.192 H 1.924 Z M 2.573,-7.115 H -4.23 l -2.043,-5.314 H -8.462 L -1.755,4.809 H 0.193 L 6.876,-12.429 H 4.641 Z"
         style="fill:#af9060;fill-opacity:1;fill-rule:nonzero;stroke:none"
         id="path58"
         inkscape:connector-curvature="0" />
    </g>
    <g
       id="g60"
       transform="matrix(0.35277777,0,0,-0.35277777,71.389992,119.41774)">
      <path
         d="m 0,0 h -2.813 v -13.462 h 2.333 c 4.639,0 6.971,2.308 6.971,6.827 C 6.491,-2.066 4.135,0 0,0 M -0.192,-15.313 H -4.976 V 1.852 h 5.288 c 5.169,0 8.463,-2.909 8.463,-8.414 0,-5.794 -3.318,-8.751 -8.967,-8.751"
         style="fill:#af9060;fill-opacity:1;fill-rule:nonzero;stroke:none"
         id="path62"
         inkscape:connector-curvature="0" />
    </g>
    <g
       id="g64"
       transform="matrix(0.35277777,0,0,-0.35277777,79.785679,119.41774)">
      <path
         d="m 0,0 h -2.813 v -13.462 h 2.332 c 4.64,0 6.972,2.308 6.972,6.827 C 6.491,-2.066 4.135,0 0,0 M -0.192,-15.313 H -4.977 V 1.852 h 5.289 c 5.169,0 8.462,-2.909 8.462,-8.414 0,-5.794 -3.317,-8.751 -8.966,-8.751"
         style="fill:#af9060;fill-opacity:1;fill-rule:nonzero;stroke:none"
         id="path66"
         inkscape:connector-curvature="0" />
    </g>
    <g
       id="g68"
       transform="matrix(0.35277777,0,0,-0.35277777,84.109958,124.82)">
      <path
         d="M 0,0 V 17.165 H 9.592 V 15.266 H 2.164 V 9.904 H 8.606 V 8.03 H 2.164 V 1.899 h 7.957 L 9.399,0 Z"
         style="fill:#af9060;fill-opacity:1;fill-rule:nonzero;stroke:none"
         id="path70"
         inkscape:connector-curvature="0" />
    </g>
    <g
       id="g72"
       transform="matrix(0.35277777,0,0,-0.35277777,20.652151,129.36995)">
      <path
         d="M 0,0 H -0.096 C 0.016,-1.146 0.071,-2.681 0.071,-4.606 V -14.943 H -1.91 V 2.102 H 1.265 L 6.517,-11.864 H 6.613 L 11.96,2.102 h 3.15 v -17.045 h -2.124 v 10.479 c 0,1.369 0.056,2.85 0.168,4.441 H 13.058 L 7.376,-14.943 H 5.61 Z"
         style="fill:#af9060;fill-opacity:1;fill-rule:nonzero;stroke:none"
         id="path74"
         inkscape:connector-curvature="0" />
    </g>
    <g
       id="g76"
       transform="matrix(0.35277777,0,0,-0.35277777,28.536417,133.43307)">
      <path
         d="m 0,0 c 0.931,-1.202 2.335,-1.803 4.213,-1.803 1.878,0 3.278,0.601 4.202,1.803 0.922,1.202 1.384,2.908 1.384,5.12 0,2.212 -0.458,3.911 -1.373,5.097 C 7.511,11.402 6.114,11.996 4.237,11.996 2.343,11.996 0.931,11.399 0,10.205 -0.932,9.012 -1.397,7.317 -1.397,5.12 -1.397,2.908 -0.932,1.202 0,0 M 11.16,0.489 C 10.555,-0.831 9.668,-1.854 8.498,-2.578 7.329,-3.303 5.899,-3.665 4.213,-3.665 c -2.594,0 -4.556,0.788 -5.884,2.363 -1.329,1.576 -1.994,3.725 -1.994,6.446 0,2.706 0.668,4.838 2.006,6.398 1.336,1.56 3.302,2.339 5.896,2.339 1.671,0 3.096,-0.358 4.273,-1.073 1.178,-0.716 2.065,-1.732 2.662,-3.044 0.597,-1.314 0.895,-2.862 0.895,-4.644 0,-1.766 -0.303,-3.309 -0.907,-4.631"
         style="fill:#af9060;fill-opacity:1;fill-rule:nonzero;stroke:none"
         id="path78"
         inkscape:connector-curvature="0" />
    </g>
    <g
       id="g80"
       transform="matrix(0.35277777,0,0,-0.35277777,37.932231,134.64162)">
      <path
         d="m 0,0 -9.119,14.156 h -0.095 c 0.127,-1.989 0.19,-3.533 0.19,-4.632 V 0 h -1.981 v 17.045 h 2.482 L 0.572,2.937 H 0.668 C 0.556,4.719 0.501,6.215 0.501,7.425 v 9.62 H 2.507 V 0 Z"
         style="fill:#af9060;fill-opacity:1;fill-rule:nonzero;stroke:none"
         id="path82"
         inkscape:connector-curvature="0" />
    </g>
    <g
       id="g84"
       transform="matrix(0.35277777,0,0,-0.35277777,41.600589,134.64162)">
      <path
         d="m 0,0 v 15.158 h -5.323 l 0.716,1.887 H 7.448 V 15.158 H 2.147 V 0 Z"
         style="fill:#af9060;fill-opacity:1;fill-rule:nonzero;stroke:none"
         id="path86"
         inkscape:connector-curvature="0" />
    </g>
    <g
       id="g88"
       transform="matrix(0.35277777,0,0,-0.35277777,45.134224,134.64162)">
      <path
         d="M 0,0 V 17.045 H 9.524 V 15.158 H 2.148 V 9.836 H 8.546 V 7.974 H 2.148 V 1.886 H 10.05 L 9.334,0 Z"
         style="fill:#af9060;fill-opacity:1;fill-rule:nonzero;stroke:none"
         id="path90"
         inkscape:connector-curvature="0" />
    </g>
    <g
       id="g92"
       transform="matrix(0.35277777,0,0,-0.35277777,50.369728,129.36995)">
      <path
         d="M 0,0 H -0.096 C 0.016,-1.146 0.071,-2.681 0.071,-4.606 V -14.943 H -1.91 V 2.102 H 1.265 L 6.517,-11.864 H 6.612 L 11.96,2.102 h 3.15 v -17.045 h -2.125 v 10.479 c 0,1.369 0.057,2.85 0.168,4.441 H 13.058 L 7.376,-14.943 H 5.61 Z"
         style="fill:#af9060;fill-opacity:1;fill-rule:nonzero;stroke:none"
         id="path94"
         inkscape:connector-curvature="0" />
    </g>
    <g
       id="g96"
       transform="matrix(0.35277777,0,0,-0.35277777,58.253816,133.43307)">
      <path
         d="M 0,0 C 0.931,-1.202 2.335,-1.803 4.214,-1.803 6.091,-1.803 7.491,-1.202 8.415,0 9.337,1.202 9.8,2.908 9.8,5.12 9.8,7.332 9.342,9.031 8.427,10.217 7.511,11.402 6.114,11.996 4.237,11.996 2.343,11.996 0.931,11.399 0,10.205 -0.932,9.012 -1.396,7.317 -1.396,5.12 -1.396,2.908 -0.932,1.202 0,0 M 11.16,0.489 C 10.555,-0.831 9.668,-1.854 8.498,-2.578 7.329,-3.303 5.899,-3.665 4.214,-3.665 c -2.595,0 -4.557,0.788 -5.885,2.363 -1.329,1.576 -1.993,3.725 -1.993,6.446 0,2.706 0.668,4.838 2.005,6.398 1.337,1.56 3.302,2.339 5.896,2.339 1.671,0 3.096,-0.358 4.273,-1.073 1.178,-0.716 2.065,-1.732 2.662,-3.044 0.597,-1.314 0.895,-2.862 0.895,-4.644 0,-1.766 -0.302,-3.309 -0.907,-4.631"
         style="fill:#af9060;fill-opacity:1;fill-rule:nonzero;stroke:none"
         id="path98"
         inkscape:connector-curvature="0" />
    </g>
    <g
       id="g100"
       transform="matrix(0.35277777,0,0,-0.35277777,64.525288,129.28553)">
      <path
         d="m 0,0 v -6.326 h 2.555 c 1.368,0 2.375,0.27 3.019,0.811 0.644,0.541 0.967,1.353 0.967,2.436 0,1.098 -0.331,1.886 -0.991,2.363 C 4.89,-0.239 3.852,0 2.435,0 Z m 7.233,0.656 c 1.018,-0.803 1.528,-2.016 1.528,-3.639 0,-2.245 -1.138,-3.765 -3.413,-4.56 l 4.678,-7.64 H 7.52 L 3.39,-8.141 H 0 v -7.042 H -2.148 V 1.862 h 4.703 c 2.099,0 3.66,-0.402 4.678,-1.206"
         style="fill:#af9060;fill-opacity:1;fill-rule:nonzero;stroke:none"
         id="path102"
         inkscape:connector-curvature="0" />
    </g>
    <g
       id="g104"
       transform="matrix(0.35277777,0,0,-0.35277777,68.988385,134.64162)">
      <path
         d="M 0,0 V 17.045 H 9.525 V 15.158 H 2.149 V 9.836 H 8.547 V 7.974 H 2.149 V 1.886 h 7.902 L 9.335,0 Z"
         style="fill:#af9060;fill-opacity:1;fill-rule:nonzero;stroke:none"
         id="path106"
         inkscape:connector-curvature="0" />
    </g>
    <g
       id="g108"
       transform="matrix(0.35277777,0,0,-0.35277777,73.550403,128.62856)">
      <path
         d="m 0,0 h 2.148 v -15.135 h 7.854 l -0.716,-1.91 H 0 Z"
         style="fill:#af9060;fill-opacity:1;fill-rule:nonzero;stroke:none"
         id="path110"
         inkscape:connector-curvature="0" />
    </g>
    <g
       id="g112"
       transform="matrix(0.35277777,0,0,-0.35277777,78.801747,133.43307)">
      <path
         d="M 0,0 C 0.931,-1.202 2.336,-1.803 4.214,-1.803 6.091,-1.803 7.491,-1.202 8.415,0 9.338,1.202 9.8,2.908 9.8,5.12 9.8,7.332 9.342,9.031 8.427,10.217 7.512,11.402 6.115,11.996 4.237,11.996 2.343,11.996 0.931,11.399 0,10.205 -0.931,9.012 -1.396,7.317 -1.396,5.12 -1.396,2.908 -0.931,1.202 0,0 M 11.16,0.489 C 10.556,-0.831 9.668,-1.854 8.499,-2.578 7.329,-3.303 5.9,-3.665 4.214,-3.665 c -2.594,0 -4.557,0.788 -5.885,2.363 -1.329,1.576 -1.993,3.725 -1.993,6.446 0,2.706 0.668,4.838 2.005,6.398 1.337,1.56 3.303,2.339 5.896,2.339 1.671,0 3.096,-0.358 4.274,-1.073 1.177,-0.716 2.064,-1.732 2.661,-3.044 0.598,-1.314 0.895,-2.862 0.895,-4.644 0,-1.766 -0.302,-3.309 -0.907,-4.631"
         style="fill:#af9060;fill-opacity:1;fill-rule:nonzero;stroke:none"
         id="path114"
         inkscape:connector-curvature="0" />
    </g>
    <g
       id="g116"
       transform="matrix(0.35277777,0,0,-0.35277777,87.097882,134.27953)">
      <path
         d="m 0,0 c -1.09,-0.843 -2.574,-1.266 -4.452,-1.266 -0.955,0 -1.838,0.073 -2.65,0.216 -0.812,0.143 -1.489,0.342 -2.029,0.597 l 0.668,1.766 c 0.43,-0.191 1.011,-0.358 1.743,-0.501 0.732,-0.143 1.519,-0.215 2.363,-0.215 1.242,0 2.192,0.243 2.853,0.728 0.66,0.486 0.991,1.158 0.991,2.018 0,0.555 -0.12,1.025 -0.359,1.408 -0.238,0.382 -0.64,0.731 -1.205,1.05 -0.565,0.318 -1.381,0.669 -2.446,1.051 -1.513,0.54 -2.623,1.197 -3.331,1.969 -0.709,0.772 -1.063,1.802 -1.063,3.091 0,1.337 0.502,2.395 1.504,3.175 1.003,0.78 2.316,1.17 3.939,1.17 1.703,0 3.271,-0.319 4.703,-0.954 L 0.536,13.464 c -1.432,0.604 -2.784,0.907 -4.057,0.907 -1.035,0 -1.831,-0.223 -2.388,-0.668 -0.557,-0.445 -0.835,-1.051 -0.835,-1.814 0,-0.574 0.115,-1.051 0.347,-1.433 0.23,-0.382 0.608,-0.721 1.133,-1.015 C -4.738,9.146 -3.991,8.816 -3.02,8.45 -1.937,8.053 -1.066,7.647 -0.406,7.233 0.254,6.819 0.759,6.314 1.11,5.718 1.46,5.12 1.635,4.393 1.635,3.533 1.635,2.021 1.09,0.844 0,0"
         style="fill:#af9060;fill-opacity:1;fill-rule:nonzero;stroke:none"
         id="path118"
         inkscape:connector-curvature="0" />
    </g>
    <g
       id="g120"
       transform="matrix(0.35277777,0,0,-0.35277777,3.4964632,128.44769)">
      <path
         d="m 0,0 c -0.007,0.02 -0.014,0.04 -0.021,0.061 -1.002,3.012 -1.038,6.74 1.815,10.762 2.265,3.195 4.651,5.962 4.149,10.992 -0.005,0.051 -0.035,0.559 0.483,0.773 C 7.002,22.826 7.366,22.33 7.384,22.3 9.963,17.992 10.547,13.344 9.196,9.69 7.403,4.84 3.453,3.505 1.427,-0.206 1.3,-0.438 1.002,-0.603 0.715,-0.58 0.407,-0.557 0.11,-0.325 0,0"
         style="fill:#2e1a4a;fill-opacity:1;fill-rule:nonzero;stroke:none"
         id="path122"
         inkscape:connector-curvature="0" />
    </g>
    <g
       id="g124"
       transform="matrix(0.35277777,0,0,-0.35277777,-1.3473538,129.31242)">
      <path
         d="M 0,0 C -8.406,3.188 -15.401,14.248 -6.487,26.114 1.275,36.446 6.796,42.383 4.944,49.418 4.907,49.558 4.857,50.06 5.301,50.287 6,50.644 6.389,49.967 6.418,49.918 10.942,42.437 6.835,33.563 0.21,23.364 -3.528,17.609 -5.583,8.54 0.857,1.303 1.194,0.925 1.173,0.526 0.971,0.244 0.79,-0.009 0.472,-0.179 0,0"
         style="fill:#2e1a4a;fill-opacity:1;fill-rule:nonzero;stroke:none"
         id="path126"
         inkscape:connector-curvature="0" />
    </g>
    <g
       id="g128"
       transform="matrix(0.35277777,0,0,-0.35277777,-9.9546013,131.44146)">
      <path
         d="m 0,0 c 1.146,0.21 5.26,1.023 13.819,3.276 5.371,1.413 11.454,0.429 13.954,-2.134 2.237,-2.292 3.03,-5.098 3.194,-5.535 0.251,-0.669 0.531,-2.179 0.531,-2.179 0,0 0.897,2.409 1.202,2.85 0.202,0.293 1.335,0.334 2.182,2.598 0.631,1.683 0.025,4.041 -3.021,6.18 -6.574,4.612 -7.371,15.753 -1.669,24.138 5.313,7.815 7.195,12.885 6.465,16.982 -0.012,0.068 -0.077,0.62 0.4,0.856 0.513,0.255 0.927,-0.146 0.96,-0.189 6.777,-8.988 1.347,-17.892 -1.913,-22.661 -3.163,-4.62 -4.22,-8.543 -3.23,-13.04 0.201,-0.97 0.374,-2.434 1.232,-3.989 0.803,-1.246 2.096,-4.648 4.167,-3.883 3.288,1.211 6.504,0.449 12.006,-0.724 7.755,-1.653 11.468,-2.36 12.495,-2.551 0.327,-0.063 0.499,-0.314 0.559,-0.402 0.037,-0.051 5.617,-7.654 5.617,-7.654 0,0 0.295,-0.364 0.086,-0.792 -0.128,-0.219 -0.367,-0.52 -0.885,-0.424 -4.661,0.894 -16.336,3.109 -21.102,3.794 -6.252,0.896 -12.146,0.067 -14.864,-3.112 -0.123,-0.144 -0.302,-0.372 -0.665,-0.372 -0.367,0 -0.549,0.198 -0.677,0.351 -2.671,3.156 -8.435,4.027 -14.447,3.17 -4.708,-0.671 -16.642,-2.924 -21.386,-3.829 -0.56,-0.144 -0.932,0.18 -1.026,0.54 -0.101,0.362 0.157,0.697 0.157,0.697 l 5.371,7.767 c 0,0 0.131,0.196 0.488,0.271"
         style="fill:#2e1a4a;fill-opacity:1;fill-rule:nonzero;stroke:none"
         id="path130"
         inkscape:connector-curvature="0" />
    </g>
  </g>
</svg>
